#!OML:ASF F:\VICON\USERDATA\INSTALL\rory3\rory3.ASF
:FULLY-SPECIFIED
:DEGREES
799
root -1.16533 26.0697 -0.751536 1.33868 10.6199 -355.401
lowerback 3.08588 -0.304629 -4.89391
upperback 1.47444 -0.534765 0.73886
thorax -0.160614 -0.292164 3.52375
lowerneck -12.9033 1.33206 -9.67863
upperneck 42.6223 5.88777 -0.464447
head 17.8424 0.842572 2.60775
rclavicle -4.42296e-015 3.97569e-015
rhumerus -33.1839 -13.7033 -76.5029
rradius 34.1736
rwrist 20.2515
rhand -19.6941 1.08678
rfingers 7.12502
rthumb 6.63512 -28.7893
lclavicle -4.42296e-015 3.97569e-015
lhumerus -35.5912 13.3055 77.0249
lradius 31.5176
lwrist -4.92373
lhand -14.1192 26.842
lfingers 7.12502
lthumb 12.0142 56.4771
rfemur -11.464 -5.33723 22.0857
rtibia 18.6902
rfoot 3.42955 -10.264
rtoes 21.5057
lfemur -19.5331 9.62678 -22.6679
ltibia 80.7985
lfoot -27.4088 -16.8271
ltoes -22.182
800
root -1.17277 25.9965 -0.673804 1.26221 10.4958 -355.5
lowerback 3.12295 -0.267708 -4.67638
upperback 1.47655 -0.481325 0.761329
thorax -0.186501 -0.263891 3.4231
lowerneck -12.9555 1.31247 -9.68426
upperneck 42.6477 5.84776 -0.417303
head 17.8701 0.829301 2.62592
rclavicle 1.85367e-014 6.36111e-015
rhumerus -32.9913 -13.5941 -76.5799
rradius 34.0418
rwrist 20.2376
rhand -19.7043 0.919415
rfingers 7.12502
rthumb 6.62526 -28.9569
lclavicle 1.85367e-014 6.36111e-015
lhumerus -35.7303 13.4748 77.0051
lradius 31.397
lwrist -4.99457
lhand -14.2122 26.9476
lfingers 7.12502
lthumb 11.9245 56.588
rfemur -11.2317 -5.31918 22.2474
rtibia 19.1462
rfoot 2.61157 -8.80927
rtoes 20.6577
lfemur -20.3835 9.98042 -22.2184
ltibia 82.7038
lfoot -25.2974 -17.9858
ltoes -22.278
801
root -1.1802 25.9194 -0.598461 1.12553 10.3455 -355.469
lowerback 3.40953 -0.190867 -4.57151
upperback 1.39602 -0.391598 0.762785
thorax -0.439142 -0.210891 3.36513
lowerneck -13.0211 1.26301 -9.85744
upperneck 42.7344 5.8054 -0.319113
head 17.9329 0.791706 2.6989
rclavicle 6.11263e-015 -1.35174e-014
rhumerus -32.9631 -13.541 -76.5452
rradius 33.9198
rwrist 20.2484
rhand -19.4624 0.955094
rfingers 7.12502
rthumb 6.85882 -28.9138
lclavicle 6.11263e-015 -1.35174e-014
lhumerus -36.0043 13.532 77.0016
lradius 31.3024
lwrist -5.06006
lhand -14.224 26.8866
lfingers 7.12502
lthumb 11.9131 56.5277
rfemur -11.0079 -5.25044 22.2422
rtibia 19.6603
rfoot 1.60858 -7.6874
rtoes 22.2115
lfemur -21.1696 10.3023 -21.8933
ltibia 84.5681
lfoot -22.858 -19.1893
ltoes -21.2976
802
root -1.18831 25.8449 -0.526138 0.935101 10.1643 -355.549
lowerback 3.74721 -0.107326 -4.36555
upperback 1.33158 -0.290315 0.794843
thorax -0.704965 -0.152313 3.28074
lowerneck -12.9924 1.23955 -9.82597
upperneck 42.7101 5.81892 -0.470241
head 17.9232 0.783618 2.62429
rclavicle 8.79622e-015 -3.18055e-015
rhumerus -32.9926 -13.4952 -76.5346
rradius 33.9233
rwrist 20.1812
rhand -19.0363 0.943629
rfingers 7.12502
rthumb 7.27012 -28.9115
lclavicle 8.79622e-015 -3.18055e-015
lhumerus -36.2 13.7007 76.9776
lradius 31.1103
lwrist -5.19315
lhand -14.2794 26.9183
lfingers 7.12502
lthumb 11.8596 56.5624
rfemur -10.8795 -5.21812 22.3864
rtibia 20.2989
rfoot 0.64445 -6.63478
rtoes 23.9616
lfemur -21.9833 10.6329 -21.4312
ltibia 86.3763
lfoot -20.4007 -20.2977
ltoes -20.9909
803
root -1.19382 25.7756 -0.458723 0.778076 9.97026 -355.777
lowerback 3.98246 -0.0722631 -3.98965
upperback 1.3154 -0.239601 0.844408
thorax -0.859611 -0.122844 3.11928
lowerneck -12.9267 1.26873 -9.70659
upperneck 42.604 5.85157 -0.585746
head 17.8504 0.8075 2.55074
rclavicle -3.52843e-015 -7.95139e-015
rhumerus -32.7891 -13.431 -76.6548
rradius 33.7643
rwrist 20.2302
rhand -18.7882 0.687052
rfingers 7.12502
rthumb 7.50962 -29.1596
lclavicle -3.52843e-015 -7.95139e-015
lhumerus -36.2137 14.2906 76.7845
lradius 30.7344
lwrist -5.74432
lhand -14.3378 26.8761
lfingers 7.12502
lthumb 11.8034 56.5235
rfemur -10.8918 -5.19703 22.7173
rtibia 21.0672
rfoot -0.212651 -5.60588
rtoes 23.7456
lfemur -22.9387 10.9427 -20.8348
ltibia 88.1193
lfoot -17.7684 -21.4172
ltoes -20.5691
804
root -1.20008 25.7078 -0.394391 0.622715 9.7986 -356.095
lowerback 4.2718 -0.0556434 -3.5362
upperback 1.29286 -0.209404 0.935661
thorax -1.04894 -0.103465 2.95813
lowerneck -13.0334 1.28126 -9.73489
upperneck 42.6022 5.88691 -0.571081
head 17.8738 0.816413 2.57127
rclavicle -2.66868e-014 -7.95139e-016
rhumerus -32.46 -13.2912 -76.7499
rradius 33.4435
rwrist 20.3463
rhand -18.7973 0.628982
rfingers 7.12502
rthumb 7.50079 -29.218
lclavicle -2.66868e-014 -7.95139e-016
lhumerus -36.1734 15.1238 76.5471
lradius 30.2968
lwrist -6.30793
lhand -14.3598 26.8395
lfingers 7.12502
lthumb 11.7821 56.4881
rfemur -10.9219 -5.20912 23.1655
rtibia 21.895
rfoot -1.16494 -4.85179
rtoes 23.1265
lfemur -23.9427 11.1447 -20.1134
ltibia 89.8065
lfoot -14.7287 -22.6004
ltoes -16.75
805
root -1.20461 25.6442 -0.327999 0.38169 9.63494 -356.546
lowerback 4.58177 -0.0153455 -2.95417
upperback 1.32363 -0.136842 1.12432
thorax -1.19762 -0.0653125 2.82239
lowerneck -13.29 1.26966 -9.87331
upperneck 42.6663 5.98674 -0.628767
head 17.9784 0.816979 2.59502
rclavicle -5.2181e-015 7.95139e-016
rhumerus -32.1348 -13.1382 -76.7028
rradius 33.1951
rwrist 20.3782
rhand -18.8275 0.618293
rfingers 7.12502
rthumb 7.47164 -29.2298
lclavicle -5.2181e-015 7.95139e-016
lhumerus -36.1389 15.8183 76.5436
lradius 29.9832
lwrist -6.59134
lhand -14.3884 27.1431
lfingers 7.12502
lthumb 11.7545 56.7932
rfemur -10.9388 -5.43211 23.7728
rtibia 22.7461
rfoot -1.96422 -4.23123
rtoes 22.8084
lfemur -24.8327 11.2733 -19.2322
ltibia 91.3934
lfoot -11.9122 -23.6342
ltoes -13.0798
806
root -1.20473 25.5889 -0.26198 0.15655 9.49703 -356.973
lowerback 4.83227 0.0011745 -2.38266
upperback 1.37271 -0.0904253 1.32349
thorax -1.29139 -0.04183 2.70408
lowerneck -13.4625 1.26737 -9.98314
upperneck 42.6632 6.10185 -0.755707
head 18.0256 0.824481 2.58011
rclavicle 2.18663e-015 -3.10104e-014
rhumerus -31.9012 -12.8999 -76.6436
rradius 33.1202
rwrist 20.3775
rhand -18.9395 0.564006
rfingers 7.12502
rthumb 7.36351 -29.2879
lclavicle 2.18663e-015 -3.10104e-014
lhumerus -36.1345 16.3548 76.6391
lradius 29.6926
lwrist -6.70009
lhand -14.6067 27.2488
lfingers 7.12502
lthumb 11.5441 56.9109
rfemur -10.9794 -5.87801 24.3483
rtibia 23.556
rfoot -2.57668 -3.58424
rtoes 23.0769
lfemur -25.7278 11.2871 -18.443
ltibia 92.8301
lfoot -9.41928 -24.6275
ltoes -11.9267
807
root -1.20616 25.5432 -0.199074 0.0543961 9.43009 -357.269
lowerback 5.02273 -0.00376217 -1.94597
upperback 1.3595 -0.0765562 1.44333
thorax -1.41295 -0.0336845 2.58154
lowerneck -13.3937 1.28285 -9.85416
upperneck 42.593 6.16773 -0.994378
head 17.9834 0.844626 2.45472
rclavicle -1.38652e-014 1.19271e-014
rhumerus -31.6569 -12.8017 -76.6134
rradius 32.9297
rwrist 20.2872
rhand -19.0732 0.463927
rfingers 7.12502
rthumb 7.23453 -29.3924
lclavicle -1.38652e-014 1.19271e-014
lhumerus -36.1077 16.9365 76.5989
lradius 29.2219
lwrist -6.91677
lhand -14.7999 26.987
lfingers 7.12502
lthumb 11.3577 56.6595
rfemur -11.1089 -6.37423 24.7808
rtibia 24.3473
rfoot -3.24558 -3.02336
rtoes 23.8617
lfemur -26.7795 11.1523 -17.8843
ltibia 94.1353
lfoot -7.6249 -25.5764
ltoes -11.0762
808
root -1.20793 25.4991 -0.137471 0.036078 9.35845 -357.506
lowerback 5.08518 -0.018357 -1.64011
upperback 1.31693 -0.0784788 1.58385
thorax -1.49185 -0.0338252 2.55463
lowerneck -13.2279 1.29675 -9.77848
upperneck 42.5281 6.2121 -1.18464
head 17.9152 0.856378 2.35509
rclavicle 2.43014e-014 -7.95139e-016
rhumerus -31.3588 -12.6737 -76.5574
rradius 32.5964
rwrist 20.2892
rhand -19.1861 0.368362
rfingers 7.12502
rthumb 7.12553 -29.4917
lclavicle 2.43014e-014 -7.95139e-016
lhumerus -36.1167 17.9127 76.4215
lradius 28.6267
lwrist -7.44387
lhand -14.827 26.4533
lfingers 7.12502
lthumb 11.3316 56.1272
rfemur -11.3467 -6.73855 25.1509
rtibia 25.1529
rfoot -3.9234 -2.61368
rtoes 24.6335
lfemur -27.8409 10.9134 -17.4017
ltibia 95.4001
lfoot -6.61617 -26.4353
ltoes -9.07414
809
root -1.20793 25.4488 -0.0766953 -0.050724 9.26195 -357.591
lowerback 5.17174 -0.0146881 -1.5174
upperback 1.3353 -0.0656001 1.71255
thorax -1.52204 -0.027416 2.61777
lowerneck -13.1691 1.29936 -9.93772
upperneck 42.5459 6.2333 -1.1243
head 17.9016 0.848886 2.41324
rclavicle 1.86858e-014 2.38542e-015
rhumerus -30.9801 -12.7777 -76.3853
rradius 32.0136
rwrist 20.9218
rhand -19.4981 0.753779
rfingers 7.12502
rthumb 6.82438 -29.1162
lclavicle 1.86858e-014 2.38542e-015
lhumerus -36.0773 18.9037 76.3059
lradius 28.0349
lwrist -7.88423
lhand -14.7752 26.3823
lfingers 7.12502
lthumb 11.3816 56.0534
rfemur -11.5091 -7.07406 25.3358
rtibia 25.9774
rfoot -4.51501 -2.12391
rtoes 24.0422
lfemur -28.6418 10.5726 -17.04
ltibia 96.6139
lfoot -6.38146 -27.0539
ltoes -7.91637
